<?xml version="1.0" encoding="UTF-8"?>
<svg xmlns="http://www.w3.org/2000/svg" viewBox="0 0 456 456">
  <path fill="#68217A" d="M0 227.93v-99.86c0-13.76 7.21-26.51 19.02-33.52L198.94 4.69c11.81-7.01 26.23-7.01 38.04 0l179.92 89.86c11.81 7.01 19.02 19.76 19.02 33.52v99.86c0 13.76-7.21 26.51-19.02 33.52L237.98 451.31c-11.81 7.01-26.23 7.01-38.04 0L19.02 261.45C7.21 254.44 0 241.69 0 227.93z"/>
  <path fill="#ffffff" d="M85.11 219.08v-65.01c0-8.98 4.71-17.3 12.42-21.87l117.41-58.7c7.71-4.57 17.13-4.57 24.84 0l117.41 58.7c7.71 4.57 12.42 12.89 12.42 21.87v65.01c0 8.98-4.71 17.3-12.42 21.87l-117.41 58.7c-7.71 4.57-17.13 4.57-24.84 0l-117.41-58.7c-7.71-4.57-12.42-12.89-12.42-21.87z"/>
  <path fill="#68217A" d="M227.93 171.93h30v30h-30zm60 0h30v30h-30zm-120 0h30v30h-30z"/>
</svg>